<svg width="442" height="168" viewBox="0 0 442 168" fill="none" xmlns="http://www.w3.org/2000/svg">
<path d="M87.2259 26.124C86.4092 28.3926 92.3983 40.6431 102.743 57.8845C138.224 116.777 133.505 117.322 139.948 117.322C146.845 117.322 145.847 114.781 124.794 75.7611C102.199 33.928 90.3112 18.1386 87.2259 26.124Z" fill="#190041"/>
<path d="M81.1461 126.94C79.9664 128.12 80.6016 129.119 84.7759 133.656C91.0372 140.371 101.473 143.184 101.473 138.193C101.382 134.11 83.7777 124.309 81.1461 126.94Z" fill="#190041"/>
<path d="M66.3549 156.069C22.6163 141.55 7.46212 137.92 2.2897 141.006C-1.97527 143.456 0.565563 145.271 12.453 148.265C22.6164 150.715 41.1283 156.341 59.2771 162.421C74.1589 167.412 77.6071 167.957 81.7814 166.414C87.4982 164.145 84.1407 161.967 66.3549 156.069Z" fill="#190041"/>
<path d="M158.914 4.2553C158.097 6.43316 162.725 27.1219 166.809 39.9168C167.807 43.0021 169.803 51.1691 171.255 57.9749C173.977 71.2235 174.431 71.9504 179.604 71.9504C184.504 71.9504 184.504 72.131 178.605 49.9894C168.351 11.4232 161.908 -3.5487 158.914 4.2553Z" fill="#190041"/>
<path d="M51.6545 99.4462C58.6418 105.798 60.8197 111.334 67.5346 111.334C78.3331 111.334 78.7868 110.608 65.9012 97.6313C42.0356 73.5841 19.1682 56.8872 14.268 59.9725C9.64009 63.0578 27.2444 74.2193 51.6545 99.4462Z" fill="#190041"/>
<path d="M380.33 79.6629C387.226 73.8553 391.763 67.8662 391.763 64.5994C391.763 60.0622 386.137 58.7002 381.328 62.2392C349.295 85.5604 316.899 119.68 322.253 124.308C327.516 128.845 332.87 125.397 356.282 102.439C366.627 92.3662 377.426 82.113 380.33 79.6629Z" fill="#190041"/>
<path d="M253.651 6.79626C250.838 15.9614 247.934 37.5585 236.591 83.2028C234.322 92.2772 234.322 92.4578 237.226 95.1801C239.585 97.3579 244.123 98.1756 246.391 96.7237C248.297 95.544 263.451 32.0231 267.081 10.1538C268.351 1.62384 256.827 -3.73006 253.651 6.79626Z" fill="#190041"/>
<path d="M421.255 117.323C393.669 125.036 343.396 145.271 340.583 149.899C338.587 153.075 346.663 156.161 352.108 154.255L372.344 146.995C403.469 135.834 441.763 119.5 441.763 117.413C441.672 113.148 436.137 113.149 421.255 117.323Z" fill="#190041"/>
<path d="M321.799 24.1286C320.257 26.7602 315.629 33.9289 301.654 53.2574C295.302 61.9689 284.776 80.1177 284.776 82.2956C284.776 86.6513 297.117 71.5877 318.17 41.4607C322.707 34.9271 327.244 28.8473 328.333 27.9398C333.233 23.4934 324.703 19.2284 321.799 24.1286Z" fill="#190041"/>
</svg>
